<?xml version='1.0' encoding='us-ascii'?>
<svg height="418.00mm" viewBox="0.0 0.0 362.90 418.00" width="362.90mm" xmlns="http://www.w3.org/2000/svg" xmlns:cc="http://creativecommons.org/ns#" xmlns:dc="http://purl.org/dc/elements/1.1/" xmlns:inkscape="http://www.inkscape.org/namespaces/inkscape" xmlns:rdf="http://www.w3.org/1999/02/22-rdf-syntax-ns#" xmlns:svg="http://www.w3.org/2000/svg" xmlns:xlink="http://www.w3.org/1999/xlink">
<!--
CardBox - Box for storage of playing cards



#### Building instructions

Place inner walls on floor first (if any). Then add the outer walls. Glue the two walls without finger joins to the inside of the side walls. Make sure there is no squeeze out on top, as this is going to form the rail for the lid.

Add the top of the rails to the sides and the grip rail to the lid (still missing in the picture above):

![Details](static/samples/CardBox-detail.jpg)



Created with Boxes.py (https://festi.info/boxes.py)
Creation date: 2021-05-10 11:08:34
Command line (remove spaces between dashes): boxes CardBox - -FingerJoint_angle=90.0 - -FingerJoint_style=rectangular - -FingerJoint_surroundingspaces=2.0 - -FingerJoint_edge_width=1.0 - -FingerJoint_finger=2.0 - -FingerJoint_play=0.0 - -FingerJoint_space=2.0 - -FingerJoint_width=1.0 - -h=47 - -cardwidth=150 - -cardheight=145 - -num=1 - -thickness=5.0 - -format=svg - -tabs=0.0 - -debug=0 - -reference=100 - -burn=0.1
Url: http://www.festi.info/CardBox?FingerJoint_angle=90.0&FingerJoint_style=rectangular&FingerJoint_surroundingspaces=2.0&FingerJoint_edge_width=1.0&FingerJoint_finger=2.0&FingerJoint_play=0.0&FingerJoint_space=2.0&FingerJoint_width=1.0&h=47&cardwidth=150&cardheight=145&num=1&thickness=5.0&format=svg&tabs=0.0&debug=0&reference=100&burn=0.1&render=1
SettingsUrl: http://www.festi.info/CardBox?FingerJoint_angle=90.0&FingerJoint_style=rectangular&FingerJoint_surroundingspaces=2.0&FingerJoint_edge_width=1.0&FingerJoint_finger=2.0&FingerJoint_play=0.0&FingerJoint_space=2.0&FingerJoint_width=1.0&h=47&cardwidth=150&cardheight=145&num=1&thickness=5.0&format=svg&tabs=0.0&debug=0&reference=100&burn=0.1
-->
<title>CardBox</title>
<metadata>
<rdf:RDF><cc:Work>
<dc:title>Box - CardBox</dc:title>
<dc:date>2021-05-10 11:08:34</dc:date>
<dc:source>http://www.festi.info/CardBox?FingerJoint_angle=90.0&amp;FingerJoint_style=rectangular&amp;FingerJoint_surroundingspaces=2.0&amp;FingerJoint_edge_width=1.0&amp;FingerJoint_finger=2.0&amp;FingerJoint_play=0.0&amp;FingerJoint_space=2.0&amp;FingerJoint_width=1.0&amp;h=47&amp;cardwidth=150&amp;cardheight=145&amp;num=1&amp;thickness=5.0&amp;format=svg&amp;tabs=0.0&amp;debug=0&amp;reference=100&amp;burn=0.1&amp;render=1</dc:source>
<dc:description>Box for storage of playing cards


#### Building instructions

Place inner walls on floor first (if any). Then add the outer walls. Glue the two walls without finger joins to the inside of the side walls. Make sure there is no squeeze out on top, as this is going to form the rail for the lid.

Add the top of the rails to the sides and the grip rail to the lid (still missing in the picture above):

![Details](static/samples/CardBox-detail.jpg)


Created with Boxes.py (https://festi.info/boxes.py)
Command line: boxes CardBox --FingerJoint_angle=90.0 --FingerJoint_style=rectangular --FingerJoint_surroundingspaces=2.0 --FingerJoint_edge_width=1.0 --FingerJoint_finger=2.0 --FingerJoint_play=0.0 --FingerJoint_space=2.0 --FingerJoint_width=1.0 --h=47 --cardwidth=150 --cardheight=145 --num=1 --thickness=5.0 --format=svg --tabs=0.0 --debug=0 --reference=100 --burn=0.1
Url: http://www.festi.info/CardBox?FingerJoint_angle=90.0&amp;FingerJoint_style=rectangular&amp;FingerJoint_surroundingspaces=2.0&amp;FingerJoint_edge_width=1.0&amp;FingerJoint_finger=2.0&amp;FingerJoint_play=0.0&amp;FingerJoint_space=2.0&amp;FingerJoint_width=1.0&amp;h=47&amp;cardwidth=150&amp;cardheight=145&amp;num=1&amp;thickness=5.0&amp;format=svg&amp;tabs=0.0&amp;debug=0&amp;reference=100&amp;burn=0.1&amp;render=1
SettingsUrl: http://www.festi.info/CardBox?FingerJoint_angle=90.0&amp;FingerJoint_style=rectangular&amp;FingerJoint_surroundingspaces=2.0&amp;FingerJoint_edge_width=1.0&amp;FingerJoint_finger=2.0&amp;FingerJoint_play=0.0&amp;FingerJoint_space=2.0&amp;FingerJoint_width=1.0&amp;h=47&amp;cardwidth=150&amp;cardheight=145&amp;num=1&amp;thickness=5.0&amp;format=svg&amp;tabs=0.0&amp;debug=0&amp;reference=100&amp;burn=0.1
</dc:description>
</cc:Work></rdf:RDF></metadata>
<g id="p-0" style="fill:none;stroke-linecap:round;stroke-linejoin:round;">
  <path d="M 10.100 408.000 H 110.100 V 398.000 H 10.100 V 408.000 Z" stroke="rgb(0,0,0)" stroke-width="0.20" />
  <text alignment-baseline="hanging" font-size="10px" style="font-family: sans-serif ; font-weight: normal; font-style: normal; fill: rgb(0,0,0)" text-anchor="middle" transform="matrix( 1.000 0.000 0.000 1.000 60.100 398.000 )">100mm</text>
</g>
<g id="p-1" style="fill:none;stroke-linecap:round;stroke-linejoin:round;">
  <path d="M 10.100 395.300 H 24.600 C 24.655 395.300 24.700 395.255 24.700 395.200 V 390.300 C 24.700 390.200 24.600 390.300 24.700 390.300 H 34.500 C 34.600 390.300 34.500 390.200 34.500 390.300 V 395.200 C 34.500 395.255 34.545 395.300 34.600 395.300 H 44.600 C 44.655 395.300 44.700 395.255 44.700 395.200 V 390.300 C 44.700 390.200 44.600 390.300 44.700 390.300 H 54.500 C 54.600 390.300 54.500 390.200 54.500 390.300 V 395.200 C 54.500 395.255 54.545 395.300 54.600 395.300 H 64.600 C 64.655 395.300 64.700 395.255 64.700 395.200 V 390.300 C 64.700 390.200 64.600 390.300 64.700 390.300 H 74.500 C 74.600 390.300 74.500 390.200 74.500 390.300 V 395.200 C 74.500 395.255 74.545 395.300 74.600 395.300 H 84.600 C 84.655 395.300 84.700 395.255 84.700 395.200 V 390.300 C 84.700 390.200 84.600 390.300 84.700 390.300 H 94.500 C 94.600 390.300 94.500 390.200 94.500 390.300 V 395.200 C 94.500 395.255 94.545 395.300 94.600 395.300 H 104.600 C 104.655 395.300 104.700 395.255 104.700 395.200 V 390.300 C 104.700 390.200 104.600 390.300 104.700 390.300 H 114.500 C 114.600 390.300 114.500 390.200 114.500 390.300 V 395.200 C 114.500 395.255 114.545 395.300 114.600 395.300 H 124.600 C 124.655 395.300 124.700 395.255 124.700 395.200 V 390.300 C 124.700 390.200 124.600 390.300 124.700 390.300 H 134.500 C 134.600 390.300 134.500 390.200 134.500 390.300 V 395.200 C 134.500 395.255 134.545 395.300 134.600 395.300 H 144.600 C 144.655 395.300 144.700 395.255 144.700 395.200 V 390.300 C 144.700 390.200 144.600 390.300 144.700 390.300 H 154.500 C 154.600 390.300 154.500 390.200 154.500 390.300 V 395.200 C 154.500 395.255 154.545 395.300 154.600 395.300 H 169.100 C 169.155 395.300 169.200 395.255 169.200 395.200 V 390.200 V 245.200 C 169.200 245.145 169.155 245.100 169.100 245.100 H 10.100 C 10.045 245.100 10.000 245.145 10.000 245.200 V 390.200 V 395.200 C 10.000 395.255 10.045 395.300 10.100 395.300 Z" stroke="rgb(0,0,0)" stroke-width="0.20" />
</g>
<g id="p-2" style="fill:none;stroke-linecap:round;stroke-linejoin:round;">
  <path d="M 176.800 390.300 H 191.700 C 191.800 390.300 191.700 390.200 191.700 390.300 V 395.200 C 191.700 395.255 191.745 395.300 191.800 395.300 H 201.800 C 201.855 395.300 201.900 395.255 201.900 395.200 V 390.300 C 201.900 390.200 201.800 390.300 201.900 390.300 H 211.700 C 211.800 390.300 211.700 390.200 211.700 390.300 V 395.200 C 211.700 395.255 211.745 395.300 211.800 395.300 H 221.800 C 221.855 395.300 221.900 395.255 221.900 395.200 V 390.300 C 221.900 390.200 221.800 390.300 221.900 390.300 H 231.700 C 231.800 390.300 231.700 390.200 231.700 390.300 V 395.200 C 231.700 395.255 231.745 395.300 231.800 395.300 H 241.800 C 241.855 395.300 241.900 395.255 241.900 395.200 V 390.300 C 241.900 390.200 241.800 390.300 241.900 390.300 H 251.700 C 251.800 390.300 251.700 390.200 251.700 390.300 V 395.200 C 251.700 395.255 251.745 395.300 251.800 395.300 H 261.800 C 261.855 395.300 261.900 395.255 261.900 395.200 V 390.300 C 261.900 390.200 261.800 390.300 261.900 390.300 H 271.700 C 271.800 390.300 271.700 390.200 271.700 390.300 V 395.200 C 271.700 395.255 271.745 395.300 271.800 395.300 H 281.800 C 281.855 395.300 281.900 395.255 281.900 395.200 V 390.300 C 281.900 390.200 281.800 390.300 281.900 390.300 H 291.700 C 291.800 390.300 291.700 390.200 291.700 390.300 V 395.200 C 291.700 395.255 291.745 395.300 291.800 395.300 H 301.800 C 301.855 395.300 301.900 395.255 301.900 395.200 V 390.300 C 301.900 390.200 301.800 390.300 301.900 390.300 H 311.700 C 311.800 390.300 311.700 390.200 311.700 390.300 V 395.200 C 311.700 395.255 311.745 395.300 311.800 395.300 H 321.800 C 321.855 395.300 321.900 395.255 321.900 395.200 V 390.300 C 321.900 390.200 321.800 390.300 321.900 390.300 H 336.800 C 336.855 390.300 336.900 390.255 336.900 390.200 V 372.800 C 336.900 372.700 336.800 372.800 336.900 372.800 H 341.800 C 341.855 372.800 341.900 372.755 341.900 372.700 V 362.700 C 341.900 362.645 341.855 362.600 341.800 362.600 H 336.900 C 336.800 362.600 336.900 362.700 336.900 362.600 V 352.800 C 336.900 352.700 336.800 352.800 336.900 352.800 H 341.800 C 341.855 352.800 341.900 352.755 341.900 352.700 V 342.700 C 341.900 342.645 341.855 342.600 341.800 342.600 H 336.900 C 336.800 342.600 336.900 342.700 336.900 342.600 V 332.800 C 336.900 332.700 336.800 332.800 336.900 332.800 H 341.800 C 341.855 332.800 341.900 332.755 341.900 332.700 V 322.700 C 341.900 322.645 341.855 322.600 341.800 322.600 H 336.900 C 336.800 322.600 336.900 322.700 336.900 322.600 V 312.800 C 336.900 312.700 336.800 312.800 336.900 312.800 H 341.800 C 341.855 312.800 341.900 312.755 341.900 312.700 V 302.700 C 341.900 302.645 341.855 302.600 341.800 302.600 H 336.900 C 336.800 302.600 336.900 302.700 336.900 302.600 V 292.800 C 336.900 292.700 336.800 292.800 336.900 292.800 H 341.800 C 341.855 292.800 341.900 292.755 341.900 292.700 V 282.700 C 341.900 282.645 341.855 282.600 341.800 282.600 H 336.900 C 336.800 282.600 336.900 282.700 336.900 282.600 V 272.800 C 336.900 272.700 336.800 272.800 336.900 272.800 H 341.800 C 341.855 272.800 341.900 272.755 341.900 272.700 V 262.700 C 341.900 262.645 341.855 262.600 341.800 262.600 H 336.900 C 336.800 262.600 336.900 262.700 336.900 262.600 V 245.200 C 336.900 245.145 336.855 245.100 336.800 245.100 H 321.900 C 321.800 245.100 321.900 245.200 321.900 245.100 V 240.200 C 321.900 240.145 321.855 240.100 321.800 240.100 H 311.800 C 311.745 240.100 311.700 240.145 311.700 240.200 V 245.100 C 311.700 245.200 311.800 245.100 311.700 245.100 H 301.900 C 301.800 245.100 301.900 245.200 301.900 245.100 V 240.200 C 301.900 240.145 301.855 240.100 301.800 240.100 H 291.800 C 291.745 240.100 291.700 240.145 291.700 240.200 V 245.100 C 291.700 245.200 291.800 245.100 291.700 245.100 H 281.900 C 281.800 245.100 281.900 245.200 281.900 245.100 V 240.200 C 281.900 240.145 281.855 240.100 281.800 240.100 H 271.800 C 271.745 240.100 271.700 240.145 271.700 240.200 V 245.100 C 271.700 245.200 271.800 245.100 271.700 245.100 H 261.900 C 261.800 245.100 261.900 245.200 261.900 245.100 V 240.200 C 261.900 240.145 261.855 240.100 261.800 240.100 H 251.800 C 251.745 240.100 251.700 240.145 251.700 240.200 V 245.100 C 251.700 245.200 251.800 245.100 251.700 245.100 H 241.900 C 241.800 245.100 241.900 245.200 241.900 245.100 V 240.200 C 241.900 240.145 241.855 240.100 241.800 240.100 H 231.800 C 231.745 240.100 231.700 240.145 231.700 240.200 V 245.100 C 231.700 245.200 231.800 245.100 231.700 245.100 H 221.900 C 221.800 245.100 221.900 245.200 221.900 245.100 V 240.200 C 221.900 240.145 221.855 240.100 221.800 240.100 H 211.800 C 211.745 240.100 211.700 240.145 211.700 240.200 V 245.100 C 211.700 245.200 211.800 245.100 211.700 245.100 H 201.900 C 201.800 245.100 201.900 245.200 201.900 245.100 V 240.200 C 201.900 240.145 201.855 240.100 201.800 240.100 H 191.800 C 191.745 240.100 191.700 240.145 191.700 240.200 V 245.100 C 191.700 245.200 191.800 245.100 191.700 245.100 H 176.800 C 176.745 245.100 176.700 245.145 176.700 245.200 V 262.600 C 176.700 262.700 176.800 262.600 176.700 262.600 H 171.800 C 171.745 262.600 171.700 262.645 171.700 262.700 V 272.700 C 171.700 272.755 171.745 272.800 171.800 272.800 H 176.700 C 176.800 272.800 176.700 272.700 176.700 272.800 V 282.600 C 176.700 282.700 176.800 282.600 176.700 282.600 H 171.800 C 171.745 282.600 171.700 282.645 171.700 282.700 V 292.700 C 171.700 292.755 171.745 292.800 171.800 292.800 H 176.700 C 176.800 292.800 176.700 292.700 176.700 292.800 V 302.600 C 176.700 302.700 176.800 302.600 176.700 302.600 H 171.800 C 171.745 302.600 171.700 302.645 171.700 302.700 V 312.700 C 171.700 312.755 171.745 312.800 171.800 312.800 H 176.700 C 176.800 312.800 176.700 312.700 176.700 312.800 V 322.600 C 176.700 322.700 176.800 322.600 176.700 322.600 H 171.800 C 171.745 322.600 171.700 322.645 171.700 322.700 V 332.700 C 171.700 332.755 171.745 332.800 171.800 332.800 H 176.700 C 176.800 332.800 176.700 332.700 176.700 332.800 V 342.600 C 176.700 342.700 176.800 342.600 176.700 342.600 H 171.800 C 171.745 342.600 171.700 342.645 171.700 342.700 V 352.700 C 171.700 352.755 171.745 352.800 171.800 352.800 H 176.700 C 176.800 352.800 176.700 352.700 176.700 352.800 V 362.600 C 176.700 362.700 176.800 362.600 176.700 362.600 H 171.800 C 171.745 362.600 171.700 362.645 171.700 362.700 V 372.700 C 171.700 372.755 171.745 372.800 171.800 372.800 H 176.700 C 176.800 372.800 176.700 372.700 176.700 372.800 V 390.200 C 176.700 390.255 176.745 390.300 176.800 390.300 Z" stroke="rgb(0,0,0)" stroke-width="0.20" />
</g>
<g id="p-3" style="fill:none;stroke-linecap:round;stroke-linejoin:round;">
  <path d="M 15.100 237.600 H 30.100 C 30.155 237.600 30.200 237.555 30.200 237.500 V 232.600 C 30.200 232.500 30.100 232.600 30.200 232.600 H 40.000 C 40.100 232.600 40.000 232.500 40.000 232.600 V 237.500 C 40.000 237.555 40.045 237.600 40.100 237.600 H 50.100 C 50.155 237.600 50.200 237.555 50.200 237.500 V 232.600 C 50.200 232.500 50.100 232.600 50.200 232.600 H 60.000 C 60.100 232.600 60.000 232.500 60.000 232.600 V 237.500 C 60.000 237.555 60.045 237.600 60.100 237.600 H 70.100 C 70.155 237.600 70.200 237.555 70.200 237.500 V 232.600 C 70.200 232.500 70.100 232.600 70.200 232.600 H 80.000 C 80.100 232.600 80.000 232.500 80.000 232.600 V 237.500 C 80.000 237.555 80.045 237.600 80.100 237.600 H 90.100 C 90.155 237.600 90.200 237.555 90.200 237.500 V 232.600 C 90.200 232.500 90.100 232.600 90.200 232.600 H 100.000 C 100.100 232.600 100.000 232.500 100.000 232.600 V 237.500 C 100.000 237.555 100.045 237.600 100.100 237.600 H 110.100 C 110.155 237.600 110.200 237.555 110.200 237.500 V 232.600 C 110.200 232.500 110.100 232.600 110.200 232.600 H 120.000 C 120.100 232.600 120.000 232.500 120.000 232.600 V 237.500 C 120.000 237.555 120.045 237.600 120.100 237.600 H 130.100 C 130.155 237.600 130.200 237.555 130.200 237.500 V 232.600 C 130.200 232.500 130.100 232.600 130.200 232.600 H 140.000 C 140.100 232.600 140.000 232.500 140.000 232.600 V 237.500 C 140.000 237.555 140.045 237.600 140.100 237.600 H 150.100 C 150.155 237.600 150.200 237.555 150.200 237.500 V 232.600 C 150.200 232.500 150.100 232.600 150.200 232.600 H 160.000 C 160.100 232.600 160.000 232.500 160.000 232.600 V 237.500 C 160.000 237.555 160.045 237.600 160.100 237.600 H 175.100 H 180.100 C 180.155 237.600 180.200 237.555 180.200 237.500 V 232.500 V 214.000 C 180.200 213.945 180.155 213.900 180.100 213.900 H 175.200 C 175.100 213.900 175.200 214.000 175.200 213.900 V 204.100 C 175.200 204.000 175.100 204.100 175.200 204.100 H 180.100 C 180.155 204.100 180.200 204.055 180.200 204.000 V 185.500 V 180.500 C 180.200 180.445 180.155 180.400 180.100 180.400 H 175.100 H 15.100 H 10.100 C 10.045 180.400 10.000 180.445 10.000 180.500 V 185.500 V 204.000 C 10.000 204.055 10.045 204.100 10.100 204.100 H 15.000 C 15.100 204.100 15.000 204.000 15.000 204.100 V 213.900 C 15.000 214.000 15.100 213.900 15.000 213.900 H 10.100 C 10.045 213.900 10.000 213.945 10.000 214.000 V 232.500 V 237.500 C 10.000 237.555 10.045 237.600 10.100 237.600 H 15.100 Z" stroke="rgb(0,0,0)" stroke-width="0.20" />
</g>
<g id="p-4" style="fill:none;stroke-linecap:round;stroke-linejoin:round;">
  <path d="M 187.800 237.600 H 202.800 C 202.855 237.600 202.900 237.555 202.900 237.500 V 232.600 C 202.900 232.500 202.800 232.600 202.900 232.600 H 212.700 C 212.800 232.600 212.700 232.500 212.700 232.600 V 237.500 C 212.700 237.555 212.745 237.600 212.800 237.600 H 222.800 C 222.855 237.600 222.900 237.555 222.900 237.500 V 232.600 C 222.900 232.500 222.800 232.600 222.900 232.600 H 232.700 C 232.800 232.600 232.700 232.500 232.700 232.600 V 237.500 C 232.700 237.555 232.745 237.600 232.800 237.600 H 242.800 C 242.855 237.600 242.900 237.555 242.900 237.500 V 232.600 C 242.900 232.500 242.800 232.600 242.900 232.600 H 252.700 C 252.800 232.600 252.700 232.500 252.700 232.600 V 237.500 C 252.700 237.555 252.745 237.600 252.800 237.600 H 262.800 C 262.855 237.600 262.900 237.555 262.900 237.500 V 232.600 C 262.900 232.500 262.800 232.600 262.900 232.600 H 272.700 C 272.800 232.600 272.700 232.500 272.700 232.600 V 237.500 C 272.700 237.555 272.745 237.600 272.800 237.600 H 282.800 C 282.855 237.600 282.900 237.555 282.900 237.500 V 232.600 C 282.900 232.500 282.800 232.600 282.900 232.600 H 292.700 C 292.800 232.600 292.700 232.500 292.700 232.600 V 237.500 C 292.700 237.555 292.745 237.600 292.800 237.600 H 302.800 C 302.855 237.600 302.900 237.555 302.900 237.500 V 232.600 C 302.900 232.500 302.800 232.600 302.900 232.600 H 312.700 C 312.800 232.600 312.700 232.500 312.700 232.600 V 237.500 C 312.700 237.555 312.745 237.600 312.800 237.600 H 322.800 C 322.855 237.600 322.900 237.555 322.900 237.500 V 232.600 C 322.900 232.500 322.800 232.600 322.900 232.600 H 332.700 C 332.800 232.600 332.700 232.500 332.700 232.600 V 237.500 C 332.700 237.555 332.745 237.600 332.800 237.600 H 347.800 H 352.800 C 352.855 237.600 352.900 237.555 352.900 237.500 V 232.500 V 214.000 C 352.900 213.945 352.855 213.900 352.800 213.900 H 347.900 C 347.800 213.900 347.900 214.000 347.900 213.900 V 204.100 C 347.900 204.000 347.800 204.100 347.900 204.100 H 352.800 C 352.855 204.100 352.900 204.055 352.900 204.000 V 185.500 C 352.900 185.445 352.855 185.400 352.800 185.400 H 347.800 C 347.745 185.400 347.700 185.445 347.700 185.500 V 190.400 C 347.700 190.500 347.800 190.400 347.700 190.400 H 187.900 C 187.800 190.400 187.900 190.500 187.900 190.400 V 185.500 C 187.900 185.445 187.855 185.400 187.800 185.400 H 182.800 C 182.745 185.400 182.700 185.445 182.700 185.500 V 204.000 C 182.700 204.055 182.745 204.100 182.800 204.100 H 187.700 C 187.800 204.100 187.700 204.000 187.700 204.100 V 213.900 C 187.700 214.000 187.800 213.900 187.700 213.900 H 182.800 C 182.745 213.900 182.700 213.945 182.700 214.000 V 232.500 V 237.500 C 182.700 237.555 182.745 237.600 182.800 237.600 H 187.800 Z" stroke="rgb(0,0,0)" stroke-width="0.20" />
</g>
<g id="p-5" style="fill:none;stroke-linecap:round;stroke-linejoin:round;">
  <path d="M 15.100 172.900 H 29.500 C 29.600 172.900 29.500 172.800 29.500 172.900 V 177.800 C 29.500 177.855 29.545 177.900 29.600 177.900 H 39.600 C 39.655 177.900 39.700 177.855 39.700 177.800 V 172.900 C 39.700 172.800 39.600 172.900 39.700 172.900 H 49.500 C 49.600 172.900 49.500 172.800 49.500 172.900 V 177.800 C 49.500 177.855 49.545 177.900 49.600 177.900 H 59.600 C 59.655 177.900 59.700 177.855 59.700 177.800 V 172.900 C 59.700 172.800 59.600 172.900 59.700 172.900 H 69.500 C 69.600 172.900 69.500 172.800 69.500 172.900 V 177.800 C 69.500 177.855 69.545 177.900 69.600 177.900 H 79.600 C 79.655 177.900 79.700 177.855 79.700 177.800 V 172.900 C 79.700 172.800 79.600 172.900 79.700 172.900 H 89.500 C 89.600 172.900 89.500 172.800 89.500 172.900 V 177.800 C 89.500 177.855 89.545 177.900 89.600 177.900 H 99.600 C 99.655 177.900 99.700 177.855 99.700 177.800 V 172.900 C 99.700 172.800 99.600 172.900 99.700 172.900 H 109.500 C 109.600 172.900 109.500 172.800 109.500 172.900 V 177.800 C 109.500 177.855 109.545 177.900 109.600 177.900 H 119.600 C 119.655 177.900 119.700 177.855 119.700 177.800 V 172.900 C 119.700 172.800 119.600 172.900 119.700 172.900 H 129.500 C 129.600 172.900 129.500 172.800 129.500 172.900 V 177.800 C 129.500 177.855 129.545 177.900 129.600 177.900 H 139.600 C 139.655 177.900 139.700 177.855 139.700 177.800 V 172.900 C 139.700 172.800 139.600 172.900 139.700 172.900 H 149.500 C 149.600 172.900 149.500 172.800 149.500 172.900 V 177.800 C 149.500 177.855 149.545 177.900 149.600 177.900 H 159.600 C 159.655 177.900 159.700 177.855 159.700 177.800 V 172.900 C 159.700 172.800 159.600 172.900 159.700 172.900 H 174.100 H 179.100 C 179.155 172.900 179.200 172.855 179.200 172.800 V 167.800 C 179.200 167.745 179.155 167.700 179.100 167.700 H 174.100 H 15.100 H 10.100 C 10.045 167.700 10.000 167.745 10.000 167.800 V 172.800 C 10.000 172.855 10.045 172.900 10.100 172.900 H 15.100 Z" stroke="rgb(0,0,0)" stroke-width="0.20" />
</g>
<g id="p-6" style="fill:none;stroke-linecap:round;stroke-linejoin:round;">
  <path d="M 15.100 160.200 H 33.500 C 33.600 160.200 33.500 160.100 33.500 160.200 V 165.100 C 33.500 165.155 33.545 165.200 33.600 165.200 H 43.600 C 43.655 165.200 43.700 165.155 43.700 165.100 V 160.200 C 43.700 160.100 43.600 160.200 43.700 160.200 H 62.100 H 67.100 C 67.155 160.200 67.200 160.155 67.200 160.100 V 142.600 C 67.200 142.545 67.155 142.500 67.100 142.500 H 62.200 C 62.100 142.500 62.200 142.600 62.200 142.500 V 132.700 C 62.200 132.600 62.100 132.700 62.200 132.700 H 67.100 C 67.155 132.700 67.200 132.655 67.200 132.600 V 122.600 C 67.200 122.545 67.155 122.500 67.100 122.500 H 62.200 C 62.100 122.500 62.200 122.600 62.200 122.500 V 112.700 C 62.200 112.600 62.100 112.700 62.200 112.700 H 67.100 C 67.155 112.700 67.200 112.655 67.200 112.600 V 102.600 C 67.200 102.545 67.155 102.500 67.100 102.500 H 62.200 C 62.100 102.500 62.200 102.600 62.200 102.500 V 92.700 C 62.200 92.600 62.100 92.700 62.200 92.700 H 67.100 C 67.155 92.700 67.200 92.655 67.200 92.600 V 82.600 C 67.200 82.545 67.155 82.500 67.100 82.500 H 62.200 C 62.100 82.500 62.200 82.600 62.200 82.500 V 72.700 C 62.200 72.600 62.100 72.700 62.200 72.700 H 67.100 C 67.155 72.700 67.200 72.655 67.200 72.600 V 62.600 C 67.200 62.545 67.155 62.500 67.100 62.500 H 62.200 C 62.100 62.500 62.200 62.600 62.200 62.500 V 52.700 C 62.200 52.600 62.100 52.700 62.200 52.700 H 67.100 C 67.155 52.700 67.200 52.655 67.200 52.600 V 42.600 C 67.200 42.545 67.155 42.500 67.100 42.500 H 62.200 C 62.100 42.500 62.200 42.600 62.200 42.500 V 32.700 C 62.200 32.600 62.100 32.700 62.200 32.700 H 67.100 C 67.155 32.700 67.200 32.655 67.200 32.600 V 15.100 C 67.200 15.045 67.155 15.000 67.100 15.000 H 62.100 H 43.700 C 43.600 15.000 43.700 15.100 43.700 15.000 V 10.100 C 43.700 10.045 43.655 10.000 43.600 10.000 H 33.600 C 33.545 10.000 33.500 10.045 33.500 10.100 V 15.000 C 33.500 15.100 33.600 15.000 33.500 15.000 H 15.100 H 10.100 C 10.045 15.000 10.000 15.045 10.000 15.100 V 32.600 C 10.000 32.655 10.045 32.700 10.100 32.700 H 15.000 C 15.100 32.700 15.000 32.600 15.000 32.700 V 42.500 C 15.000 42.600 15.100 42.500 15.000 42.500 H 10.100 C 10.045 42.500 10.000 42.545 10.000 42.600 V 52.600 C 10.000 52.655 10.045 52.700 10.100 52.700 H 15.000 C 15.100 52.700 15.000 52.600 15.000 52.700 V 62.500 C 15.000 62.600 15.100 62.500 15.000 62.500 H 10.100 C 10.045 62.500 10.000 62.545 10.000 62.600 V 72.600 C 10.000 72.655 10.045 72.700 10.100 72.700 H 15.000 C 15.100 72.700 15.000 72.600 15.000 72.700 V 82.500 C 15.000 82.600 15.100 82.500 15.000 82.500 H 10.100 C 10.045 82.500 10.000 82.545 10.000 82.600 V 92.600 C 10.000 92.655 10.045 92.700 10.100 92.700 H 15.000 C 15.100 92.700 15.000 92.600 15.000 92.700 V 102.500 C 15.000 102.600 15.100 102.500 15.000 102.500 H 10.100 C 10.045 102.500 10.000 102.545 10.000 102.600 V 112.600 C 10.000 112.655 10.045 112.700 10.100 112.700 H 15.000 C 15.100 112.700 15.000 112.600 15.000 112.700 V 122.500 C 15.000 122.600 15.100 122.500 15.000 122.500 H 10.100 C 10.045 122.500 10.000 122.545 10.000 122.600 V 132.600 C 10.000 132.655 10.045 132.700 10.100 132.700 H 15.000 C 15.100 132.700 15.000 132.600 15.000 132.700 V 142.500 C 15.000 142.600 15.100 142.500 15.000 142.500 H 10.100 C 10.045 142.500 10.000 142.545 10.000 142.600 V 160.100 C 10.000 160.155 10.045 160.200 10.100 160.200 H 15.100 Z" stroke="rgb(0,0,0)" stroke-width="0.20" />
</g>
<g id="p-7" style="fill:none;stroke-linecap:round;stroke-linejoin:round;">
  <path d="M 74.800 160.200 H 93.200 C 93.300 160.200 93.200 160.100 93.200 160.200 V 165.100 C 93.200 165.155 93.245 165.200 93.300 165.200 H 103.300 C 103.355 165.200 103.400 165.155 103.400 165.100 V 160.200 C 103.400 160.100 103.300 160.200 103.400 160.200 H 121.800 H 126.800 C 126.855 160.200 126.900 160.155 126.900 160.100 V 142.600 C 126.900 142.545 126.855 142.500 126.800 142.500 H 121.900 C 121.800 142.500 121.900 142.600 121.900 142.500 V 132.700 C 121.900 132.600 121.800 132.700 121.900 132.700 H 126.800 C 126.855 132.700 126.900 132.655 126.900 132.600 V 122.600 C 126.900 122.545 126.855 122.500 126.800 122.500 H 121.900 C 121.800 122.500 121.900 122.600 121.900 122.500 V 112.700 C 121.900 112.600 121.800 112.700 121.900 112.700 H 126.800 C 126.855 112.700 126.900 112.655 126.900 112.600 V 102.600 C 126.900 102.545 126.855 102.500 126.800 102.500 H 121.900 C 121.800 102.500 121.900 102.600 121.900 102.500 V 92.700 C 121.900 92.600 121.800 92.700 121.900 92.700 H 126.800 C 126.855 92.700 126.900 92.655 126.900 92.600 V 82.600 C 126.900 82.545 126.855 82.500 126.800 82.500 H 121.900 C 121.800 82.500 121.900 82.600 121.900 82.500 V 72.700 C 121.900 72.600 121.800 72.700 121.900 72.700 H 126.800 C 126.855 72.700 126.900 72.655 126.900 72.600 V 62.600 C 126.900 62.545 126.855 62.500 126.800 62.500 H 121.900 C 121.800 62.500 121.900 62.600 121.900 62.500 V 52.700 C 121.900 52.600 121.800 52.700 121.900 52.700 H 126.800 C 126.855 52.700 126.900 52.655 126.900 52.600 V 42.600 C 126.900 42.545 126.855 42.500 126.800 42.500 H 121.900 C 121.800 42.500 121.900 42.600 121.900 42.500 V 32.700 C 121.900 32.600 121.800 32.700 121.900 32.700 H 126.800 C 126.855 32.700 126.900 32.655 126.900 32.600 V 15.100 C 126.900 15.045 126.855 15.000 126.800 15.000 H 121.800 H 103.400 C 103.300 15.000 103.400 15.100 103.400 15.000 V 10.100 C 103.400 10.045 103.355 10.000 103.300 10.000 H 93.300 C 93.245 10.000 93.200 10.045 93.200 10.100 V 15.000 C 93.200 15.100 93.300 15.000 93.200 15.000 H 74.800 H 69.800 C 69.745 15.000 69.700 15.045 69.700 15.100 V 32.600 C 69.700 32.655 69.745 32.700 69.800 32.700 H 74.700 C 74.800 32.700 74.700 32.600 74.700 32.700 V 42.500 C 74.700 42.600 74.800 42.500 74.700 42.500 H 69.800 C 69.745 42.500 69.700 42.545 69.700 42.600 V 52.600 C 69.700 52.655 69.745 52.700 69.800 52.700 H 74.700 C 74.800 52.700 74.700 52.600 74.700 52.700 V 62.500 C 74.700 62.600 74.800 62.500 74.700 62.500 H 69.800 C 69.745 62.500 69.700 62.545 69.700 62.600 V 72.600 C 69.700 72.655 69.745 72.700 69.800 72.700 H 74.700 C 74.800 72.700 74.700 72.600 74.700 72.700 V 82.500 C 74.700 82.600 74.800 82.500 74.700 82.500 H 69.800 C 69.745 82.500 69.700 82.545 69.700 82.600 V 92.600 C 69.700 92.655 69.745 92.700 69.800 92.700 H 74.700 C 74.800 92.700 74.700 92.600 74.700 92.700 V 102.500 C 74.700 102.600 74.800 102.500 74.700 102.500 H 69.800 C 69.745 102.500 69.700 102.545 69.700 102.600 V 112.600 C 69.700 112.655 69.745 112.700 69.800 112.700 H 74.700 C 74.800 112.700 74.700 112.600 74.700 112.700 V 122.500 C 74.700 122.600 74.800 122.500 74.700 122.500 H 69.800 C 69.745 122.500 69.700 122.545 69.700 122.600 V 132.600 C 69.700 132.655 69.745 132.700 69.800 132.700 H 74.700 C 74.800 132.700 74.700 132.600 74.700 132.700 V 142.500 C 74.700 142.600 74.800 142.500 74.700 142.500 H 69.800 C 69.745 142.500 69.700 142.545 69.700 142.600 V 160.100 C 69.700 160.155 69.745 160.200 69.800 160.200 H 74.800 Z" stroke="rgb(0,0,0)" stroke-width="0.20" />
</g>
<g id="p-8" style="fill:none;stroke-linecap:round;stroke-linejoin:round;">
  <path d="M 129.500 165.200 H 171.500 C 171.555 165.200 171.600 165.155 171.600 165.100 V 102.600 C 171.600 102.545 171.555 102.500 171.500 102.500 H 144.500 C 142.762 102.500 141.055 102.043 139.550 101.174 C 138.045 100.305 136.795 99.055 135.926 97.550 C 135.057 96.045 134.600 94.338 134.600 92.600 C 134.600 90.862 135.057 89.155 135.926 87.650 C 136.795 86.145 138.045 84.895 139.550 84.026 C 141.055 83.157 142.762 82.700 144.500 82.700 H 171.500 C 171.555 82.700 171.600 82.655 171.600 82.600 V 20.100 C 171.600 20.045 171.555 20.000 171.500 20.000 H 129.500 C 129.445 20.000 129.400 20.045 129.400 20.100 V 165.100 C 129.400 165.155 129.445 165.200 129.500 165.200 Z" stroke="rgb(0,0,0)" stroke-width="0.20" />
</g>
<g id="p-9" style="fill:none;stroke-linecap:round;stroke-linejoin:round;">
  <path d="M 174.200 165.200 H 216.200 C 216.255 165.200 216.300 165.155 216.300 165.100 V 102.600 C 216.300 102.545 216.255 102.500 216.200 102.500 H 189.200 C 187.462 102.500 185.755 102.043 184.250 101.174 C 182.745 100.305 181.495 99.055 180.626 97.550 C 179.757 96.045 179.300 94.338 179.300 92.600 C 179.300 90.862 179.757 89.155 180.626 87.650 C 181.495 86.145 182.745 84.895 184.250 84.026 C 185.755 83.157 187.462 82.700 189.200 82.700 H 216.200 C 216.255 82.700 216.300 82.655 216.300 82.600 V 20.100 C 216.300 20.045 216.255 20.000 216.200 20.000 H 174.200 C 174.145 20.000 174.100 20.045 174.100 20.100 V 165.100 C 174.100 165.155 174.145 165.200 174.200 165.200 Z" stroke="rgb(0,0,0)" stroke-width="0.20" />
</g>
<g id="p-10" style="fill:none;stroke-linecap:round;stroke-linejoin:round;">
  <path d="M 223.900 165.200 H 228.900 C 228.955 165.200 229.000 165.155 229.000 165.100 V 20.100 C 229.000 20.045 228.955 20.000 228.900 20.000 H 223.900 C 223.845 20.000 223.800 20.045 223.800 20.100 V 37.500 C 223.800 37.600 223.900 37.500 223.800 37.500 H 218.900 C 218.845 37.500 218.800 37.545 218.800 37.600 V 47.600 C 218.800 47.655 218.845 47.700 218.900 47.700 H 223.800 C 223.900 47.700 223.800 47.600 223.800 47.700 V 57.500 C 223.800 57.600 223.900 57.500 223.800 57.500 H 218.900 C 218.845 57.500 218.800 57.545 218.800 57.600 V 67.600 C 218.800 67.655 218.845 67.700 218.900 67.700 H 223.800 C 223.900 67.700 223.800 67.600 223.800 67.700 V 77.500 C 223.800 77.600 223.900 77.500 223.800 77.500 H 218.900 C 218.845 77.500 218.800 77.545 218.800 77.600 V 87.600 C 218.800 87.655 218.845 87.700 218.900 87.700 H 223.800 C 223.900 87.700 223.800 87.600 223.800 87.700 V 97.500 C 223.800 97.600 223.900 97.500 223.800 97.500 H 218.900 C 218.845 97.500 218.800 97.545 218.800 97.600 V 107.600 C 218.800 107.655 218.845 107.700 218.900 107.700 H 223.800 C 223.900 107.700 223.800 107.600 223.800 107.700 V 117.500 C 223.800 117.600 223.900 117.500 223.800 117.500 H 218.900 C 218.845 117.500 218.800 117.545 218.800 117.600 V 127.600 C 218.800 127.655 218.845 127.700 218.900 127.700 H 223.800 C 223.900 127.700 223.800 127.600 223.800 127.700 V 137.500 C 223.800 137.600 223.900 137.500 223.800 137.500 H 218.900 C 218.845 137.500 218.800 137.545 218.800 137.600 V 147.600 C 218.800 147.655 218.845 147.700 218.900 147.700 H 223.800 C 223.900 147.700 223.800 147.600 223.800 147.700 V 165.100 C 223.800 165.155 223.845 165.200 223.900 165.200 Z" stroke="rgb(0,0,0)" stroke-width="0.20" />
</g>
<g id="p-11" style="fill:none;stroke-linecap:round;stroke-linejoin:round;">
  <path d="M 231.600 165.200 H 236.600 C 236.655 165.200 236.700 165.155 236.700 165.100 V 147.700 C 236.700 147.600 236.600 147.700 236.700 147.700 H 241.600 C 241.655 147.700 241.700 147.655 241.700 147.600 V 137.600 C 241.700 137.545 241.655 137.500 241.600 137.500 H 236.700 C 236.600 137.500 236.700 137.600 236.700 137.500 V 127.700 C 236.700 127.600 236.600 127.700 236.700 127.700 H 241.600 C 241.655 127.700 241.700 127.655 241.700 127.600 V 117.600 C 241.700 117.545 241.655 117.500 241.600 117.500 H 236.700 C 236.600 117.500 236.700 117.600 236.700 117.500 V 107.700 C 236.700 107.600 236.600 107.700 236.700 107.700 H 241.600 C 241.655 107.700 241.700 107.655 241.700 107.600 V 97.600 C 241.700 97.545 241.655 97.500 241.600 97.500 H 236.700 C 236.600 97.500 236.700 97.600 236.700 97.500 V 87.700 C 236.700 87.600 236.600 87.700 236.700 87.700 H 241.600 C 241.655 87.700 241.700 87.655 241.700 87.600 V 77.600 C 241.700 77.545 241.655 77.500 241.600 77.500 H 236.700 C 236.600 77.500 236.700 77.600 236.700 77.500 V 67.700 C 236.700 67.600 236.600 67.700 236.700 67.700 H 241.600 C 241.655 67.700 241.700 67.655 241.700 67.600 V 57.600 C 241.700 57.545 241.655 57.500 241.600 57.500 H 236.700 C 236.600 57.500 236.700 57.600 236.700 57.500 V 47.700 C 236.700 47.600 236.600 47.700 236.700 47.700 H 241.600 C 241.655 47.700 241.700 47.655 241.700 47.600 V 37.600 C 241.700 37.545 241.655 37.500 241.600 37.500 H 236.700 C 236.600 37.500 236.700 37.600 236.700 37.500 V 20.100 C 236.700 20.045 236.655 20.000 236.600 20.000 H 231.600 C 231.545 20.000 231.500 20.045 231.500 20.100 V 165.100 C 231.500 165.155 231.545 165.200 231.600 165.200 Z" stroke="rgb(0,0,0)" stroke-width="0.20" />
</g>
</svg>